<svg xmlns="http://www.w3.org/2000/svg" width="32" height="32" version="1.0" viewBox="0 0 700 700">
    <path
        d="M152.5 1.6c-37.9 5.1-70.7 20.7-98.2 46.8C24 77 5.2 115.5 1 157.5.2 165.3 0 224 .2 357l.3 188.5 2.3 11.3C16.5 625.2 65.9 677.9 132 694.5c22.2 5.6 17.4 5.5 217.8 5.5 117 0 188-.4 193.7-1 13.4-1.5 23.6-3.8 36.9-8.1 64.8-21.2 111.3-79.3 118.6-148.1 1.4-13 1.3-374.3 0-386.3-9.5-82.8-73-146.4-155.2-155.4-15.6-1.7-378.3-1.3-391.3.5zm76 285.9c18.1 31.4 29.5 50.4 30.4 50.2.7-.1 14.2-22.7 30-50.2l28.7-50 19.3-.3 19.4-.2-1.5 2.2c-.8 1.3-19.1 31.8-40.6 67.9L275 372.8V459h-33v-87.1L202 305c-22-36.9-40-67.2-40-67.5 0-.3 8.4-.5 18.8-.5h18.8l28.9 50.5zm269.4 59.3c21.7 60.3 39.6 110.3 39.9 110.9.3 1-3.6 1.3-17.4 1.3h-17.9l-10.1-29.3-10-29.2-42.9-.3c-23.6-.1-43.3.2-43.7.6-.5.5-5.3 13.7-10.7 29.3l-9.9 28.4-17.7.3c-17 .2-17.7.2-17.2-1.7.2-1 18.1-51 39.7-111L419.3 237h39.2l39.4 109.8z" />
    <path
        d="M438 277.2c0 .2-7.4 21.4-16.4 47.3l-16.3 47 33 .3c18.2.1 33.2 0 33.5-.2.7-.8-32-94.6-32.9-94.6-.5 0-.9.1-.9.2z" />
</svg>